<svg width="35" height="36" viewBox="0 0 35 36" fill="none" xmlns="http://www.w3.org/2000/svg">
<path d="M27.7083 16.5H10.4125L15.7062 9.96C15.9538 9.65368 16.0729 9.25876 16.0373 8.86212C16.0017 8.46548 15.8145 8.09961 15.5166 7.845C15.2188 7.59039 14.8349 7.4679 14.4493 7.50447C14.0636 7.54104 13.7079 7.73368 13.4604 8.04L6.16873 17.04C6.11967 17.1116 6.0758 17.1868 6.03748 17.265C6.03748 17.34 6.03748 17.385 5.9354 17.46C5.8693 17.632 5.83469 17.8151 5.83331 18C5.83469 18.1849 5.8693 18.368 5.9354 18.54C5.9354 18.615 5.9354 18.66 6.03748 18.735C6.0758 18.8132 6.11967 18.8884 6.16873 18.96L13.4604 27.96C13.5975 28.1293 13.7692 28.2655 13.9633 28.3588C14.1574 28.4522 14.3691 28.5004 14.5833 28.5C14.9241 28.5007 15.2543 28.3786 15.5166 28.155C15.6643 28.0291 15.7864 27.8744 15.8759 27.6999C15.9653 27.5254 16.0204 27.3344 16.0381 27.138C16.0557 26.9415 16.0354 26.7434 15.9785 26.555C15.9215 26.3666 15.829 26.1916 15.7062 26.04L10.4125 19.5H27.7083C28.0951 19.5 28.466 19.342 28.7395 19.0607C29.013 18.7794 29.1666 18.3978 29.1666 18C29.1666 17.6022 29.013 17.2206 28.7395 16.9393C28.466 16.658 28.0951 16.5 27.7083 16.5Z" fill="black"/>
</svg>
