<svg width="25" height="25" viewBox="0 0 35 35" fill="none" xmlns="http://www.w3.org/2000/svg">
<path d="M17.5 0C9.00492 0 1.92526 6.05369 0.335387 14.082H5.19318C6.68996 8.68455 11.6259 4.7168 17.5 4.7168C21.0312 4.7168 24.2222 6.15166 26.532 8.46802L20.918 14.082H35V0L29.8731 5.12695C26.7065 1.95945 22.3329 0 17.5 0ZM0 20.918V35L5.12695 29.8731C8.29343 33.0406 12.6671 35 17.5 35C25.9951 35 33.0747 28.9463 34.6646 20.918H29.8068C28.3101 26.3154 23.374 30.2832 17.5 30.2832C13.9688 30.2832 10.7778 28.8483 8.46802 26.532L14.082 20.918H0V20.918Z" fill="black"/>
</svg>
